<mxfile host="app.diagrams.net" modified="2024-03-09T22:15:31.597Z" agent="Mozilla/5.0 (Windows NT 10.0; Win64; x64) AppleWebKit/537.36 (KHTML, like Gecko) Chrome/109.0.0.0 Safari/537.36" etag="i1ms_2bO2LitbgGvDQqz" version="24.0.4" type="device">
  <diagram id="C5RBs43oDa-KdzZeNtuy" name="Page-1">
    <mxGraphModel dx="858" dy="406" grid="1" gridSize="10" guides="1" tooltips="1" connect="1" arrows="1" fold="1" page="1" pageScale="1" pageWidth="827" pageHeight="1169" background="none" math="0" shadow="0">
      <root>
        <mxCell id="WIyWlLk6GJQsqaUBKTNV-0" />
        <mxCell id="WIyWlLk6GJQsqaUBKTNV-1" parent="WIyWlLk6GJQsqaUBKTNV-0" />
        <mxCell id="WIyWlLk6GJQsqaUBKTNV-2" value="" style="rounded=0;html=1;jettySize=auto;orthogonalLoop=1;fontSize=11;endArrow=block;endFill=0;endSize=8;strokeWidth=1;shadow=0;labelBackgroundColor=none;edgeStyle=orthogonalEdgeStyle;exitX=0.5;exitY=1;exitDx=0;exitDy=0;entryX=0.5;entryY=0;entryDx=0;entryDy=0;" parent="WIyWlLk6GJQsqaUBKTNV-1" source="eAH29HLJDyGKY2sN0OEk-0" target="eAH29HLJDyGKY2sN0OEk-1" edge="1">
          <mxGeometry relative="1" as="geometry">
            <mxPoint x="400" y="130" as="targetPoint" />
          </mxGeometry>
        </mxCell>
        <mxCell id="WIyWlLk6GJQsqaUBKTNV-4" value="" style="rounded=0;html=1;jettySize=auto;orthogonalLoop=1;fontSize=11;endArrow=block;endFill=0;endSize=8;strokeWidth=1;shadow=0;labelBackgroundColor=none;edgeStyle=orthogonalEdgeStyle;exitX=0.5;exitY=1;exitDx=0;exitDy=0;entryX=0.5;entryY=0;entryDx=0;entryDy=0;" parent="WIyWlLk6GJQsqaUBKTNV-1" source="eAH29HLJDyGKY2sN0OEk-1" target="eAH29HLJDyGKY2sN0OEk-40" edge="1">
          <mxGeometry y="20" relative="1" as="geometry">
            <mxPoint as="offset" />
            <mxPoint x="405" y="200" as="targetPoint" />
          </mxGeometry>
        </mxCell>
        <mxCell id="WIyWlLk6GJQsqaUBKTNV-9" value="&lt;div&gt;&lt;br&gt;&lt;/div&gt;&lt;div&gt;&lt;br&gt;&lt;/div&gt;" style="edgeStyle=orthogonalEdgeStyle;rounded=0;html=1;jettySize=auto;orthogonalLoop=1;fontSize=11;endArrow=block;endFill=0;endSize=8;strokeWidth=1;shadow=0;labelBackgroundColor=none;exitX=0.5;exitY=1;exitDx=0;exitDy=0;entryX=0.5;entryY=0;entryDx=0;entryDy=0;" parent="WIyWlLk6GJQsqaUBKTNV-1" edge="1">
          <mxGeometry x="0.5" y="80" relative="1" as="geometry">
            <mxPoint as="offset" />
            <mxPoint x="405" y="240" as="sourcePoint" />
            <mxPoint x="400" y="280" as="targetPoint" />
            <Array as="points">
              <mxPoint x="400" y="250" />
              <mxPoint x="400" y="250" />
            </Array>
          </mxGeometry>
        </mxCell>
        <mxCell id="eAH29HLJDyGKY2sN0OEk-0" value="&lt;font style=&quot;font-size: 14px;&quot;&gt;&lt;b style=&quot;font-size: 14px;&quot;&gt;ПОЧАТОК&lt;/b&gt;&lt;/font&gt;&lt;div style=&quot;font-size: 14px;&quot;&gt;&lt;div style=&quot;font-size: 14px;&quot;&gt;&lt;span style=&quot;line-height: 115%; font-size: 14px;&quot;&gt;&lt;font style=&quot;font-size: 14px;&quot;&gt;Заходимо до бібліотеки&lt;/font&gt;&lt;/span&gt;&lt;br style=&quot;font-size: 14px;&quot;&gt;&lt;/div&gt;&lt;/div&gt;" style="ellipse;whiteSpace=wrap;html=1;strokeWidth=2;gradientColor=#b3b3b3;fillColor=#f5f5f5;strokeColor=#666666;fontSize=14;fontFamily=Helvetica;" vertex="1" parent="WIyWlLk6GJQsqaUBKTNV-1">
          <mxGeometry x="290" y="10" width="220" height="70" as="geometry" />
        </mxCell>
        <mxCell id="eAH29HLJDyGKY2sN0OEk-1" value="&lt;span style=&quot;font-size: 14px;&quot;&gt;Пред’являємо читацький квиток&lt;/span&gt;" style="rounded=0;whiteSpace=wrap;html=1;strokeWidth=2;gradientColor=#b3b3b3;fillColor=#f5f5f5;strokeColor=#666666;fontSize=14;fontFamily=Helvetica;" vertex="1" parent="WIyWlLk6GJQsqaUBKTNV-1">
          <mxGeometry x="280" y="120" width="240" height="40" as="geometry" />
        </mxCell>
        <mxCell id="eAH29HLJDyGKY2sN0OEk-5" value="&lt;b style=&quot;font-size: 12px;&quot;&gt;ТАК&lt;/b&gt;" style="edgeStyle=orthogonalEdgeStyle;rounded=0;html=1;jettySize=auto;orthogonalLoop=1;fontSize=12;endArrow=block;endFill=0;endSize=8;strokeWidth=1;shadow=0;labelBackgroundColor=none;exitX=0.5;exitY=1;exitDx=0;exitDy=0;entryX=0.5;entryY=0;entryDx=0;entryDy=0;" edge="1" parent="WIyWlLk6GJQsqaUBKTNV-1" source="eAH29HLJDyGKY2sN0OEk-41" target="eAH29HLJDyGKY2sN0OEk-9">
          <mxGeometry x="1" y="98" relative="1" as="geometry">
            <mxPoint x="-8" y="40" as="offset" />
            <mxPoint x="400" y="350" as="sourcePoint" />
            <mxPoint x="450" y="360" as="targetPoint" />
            <Array as="points">
              <mxPoint x="400" y="350" />
              <mxPoint x="401" y="350" />
              <mxPoint x="401" y="360" />
              <mxPoint x="400" y="360" />
            </Array>
          </mxGeometry>
        </mxCell>
        <mxCell id="eAH29HLJDyGKY2sN0OEk-9" value="&lt;span style=&quot;font-size: 14px;&quot;&gt;Книжка є в наявності?&lt;/span&gt;" style="rhombus;whiteSpace=wrap;html=1;shadow=0;fontFamily=Helvetica;fontSize=12;align=center;strokeWidth=2;spacing=6;spacingTop=-4;gradientColor=#b3b3b3;fillColor=#f5f5f5;strokeColor=#666666;" vertex="1" parent="WIyWlLk6GJQsqaUBKTNV-1">
          <mxGeometry x="330" y="370" width="140" height="100" as="geometry" />
        </mxCell>
        <mxCell id="eAH29HLJDyGKY2sN0OEk-19" value="" style="edgeStyle=orthogonalEdgeStyle;rounded=0;html=1;jettySize=auto;orthogonalLoop=1;fontSize=11;endArrow=block;endFill=0;endSize=8;strokeWidth=1;shadow=0;labelBackgroundColor=none;entryX=0.5;entryY=0;entryDx=0;entryDy=0;exitX=0.5;exitY=1;exitDx=0;exitDy=0;" edge="1" parent="WIyWlLk6GJQsqaUBKTNV-1" source="eAH29HLJDyGKY2sN0OEk-24" target="eAH29HLJDyGKY2sN0OEk-33">
          <mxGeometry x="-0.2161" y="20" relative="1" as="geometry">
            <mxPoint as="offset" />
            <mxPoint x="610" y="450" as="sourcePoint" />
            <mxPoint x="600" y="500" as="targetPoint" />
            <Array as="points" />
          </mxGeometry>
        </mxCell>
        <mxCell id="eAH29HLJDyGKY2sN0OEk-24" value="&lt;font style=&quot;font-size: 14px;&quot;&gt;Беремо книжку&lt;/font&gt;" style="rounded=0;whiteSpace=wrap;html=1;strokeWidth=2;gradientColor=#b3b3b3;fontSize=14;fontFamily=Helvetica;fillColor=#f5f5f5;strokeColor=#666666;" vertex="1" parent="WIyWlLk6GJQsqaUBKTNV-1">
          <mxGeometry x="530" y="400" width="160" height="40" as="geometry" />
        </mxCell>
        <mxCell id="eAH29HLJDyGKY2sN0OEk-29" value="" style="edgeStyle=orthogonalEdgeStyle;rounded=0;html=1;jettySize=auto;orthogonalLoop=1;fontSize=11;endArrow=block;endFill=0;endSize=8;strokeWidth=1;shadow=0;labelBackgroundColor=none;entryX=0;entryY=0.5;entryDx=0;entryDy=0;exitX=1;exitY=0.5;exitDx=0;exitDy=0;" edge="1" parent="WIyWlLk6GJQsqaUBKTNV-1" source="eAH29HLJDyGKY2sN0OEk-9" target="eAH29HLJDyGKY2sN0OEk-24">
          <mxGeometry x="-0.2161" y="20" relative="1" as="geometry">
            <mxPoint as="offset" />
            <mxPoint x="480" y="390" as="sourcePoint" />
            <mxPoint x="490" y="470" as="targetPoint" />
            <Array as="points">
              <mxPoint x="490" y="420" />
              <mxPoint x="490" y="420" />
            </Array>
          </mxGeometry>
        </mxCell>
        <mxCell id="eAH29HLJDyGKY2sN0OEk-31" value="" style="edgeStyle=orthogonalEdgeStyle;rounded=0;html=1;jettySize=auto;orthogonalLoop=1;fontSize=11;endArrow=block;endFill=0;endSize=8;strokeWidth=1;shadow=0;labelBackgroundColor=none;exitX=0;exitY=0.5;exitDx=0;exitDy=0;entryX=0;entryY=0.5;entryDx=0;entryDy=0;" edge="1" parent="WIyWlLk6GJQsqaUBKTNV-1" source="eAH29HLJDyGKY2sN0OEk-9" target="eAH29HLJDyGKY2sN0OEk-35">
          <mxGeometry x="-0.2161" y="20" relative="1" as="geometry">
            <mxPoint as="offset" />
            <mxPoint x="400" y="560" as="sourcePoint" />
            <mxPoint x="520" y="570" as="targetPoint" />
            <Array as="points">
              <mxPoint x="190" y="420" />
              <mxPoint x="190" y="595" />
            </Array>
          </mxGeometry>
        </mxCell>
        <mxCell id="eAH29HLJDyGKY2sN0OEk-32" value="&lt;div&gt;&lt;font style=&quot;font-size: 14px;&quot;&gt;НІ&lt;/font&gt;&lt;/div&gt;" style="edgeLabel;html=1;align=center;verticalAlign=middle;resizable=0;points=[];labelBackgroundColor=none;fontStyle=1" vertex="1" connectable="0" parent="eAH29HLJDyGKY2sN0OEk-31">
          <mxGeometry relative="1" as="geometry">
            <mxPoint x="70" y="-78" as="offset" />
          </mxGeometry>
        </mxCell>
        <mxCell id="eAH29HLJDyGKY2sN0OEk-33" value="&lt;span style=&quot;font-size: 14px; line-height: 115%;&quot;&gt;Розписуємося за отримання&lt;/span&gt;" style="rounded=0;whiteSpace=wrap;html=1;strokeWidth=2;gradientColor=#b3b3b3;fontSize=14;fontFamily=Helvetica;fillColor=#f5f5f5;strokeColor=#666666;" vertex="1" parent="WIyWlLk6GJQsqaUBKTNV-1">
          <mxGeometry x="530" y="490" width="160" height="40" as="geometry" />
        </mxCell>
        <mxCell id="eAH29HLJDyGKY2sN0OEk-35" value="&lt;div style=&quot;font-size: 14px;&quot;&gt;&lt;div style=&quot;font-size: 14px;&quot;&gt;&lt;span style=&quot;font-size: 14px; line-height: 115%;&quot;&gt;Виходимо з бібліотеки&lt;/span&gt;&lt;br style=&quot;font-size: 14px;&quot;&gt;&lt;/div&gt;&lt;div style=&quot;font-size: 14px;&quot;&gt;&lt;span style=&quot;line-height: 115%; font-size: 14px;&quot;&gt;&lt;font style=&quot;font-size: 14px;&quot;&gt;&lt;b style=&quot;font-size: 14px;&quot;&gt;КІНЕЦЬ&lt;/b&gt;&lt;/font&gt;&lt;/span&gt;&lt;/div&gt;&lt;/div&gt;" style="ellipse;whiteSpace=wrap;html=1;strokeWidth=2;gradientColor=#b3b3b3;fontSize=14;fontFamily=Helvetica;fillColor=#f5f5f5;strokeColor=#666666;" vertex="1" parent="WIyWlLk6GJQsqaUBKTNV-1">
          <mxGeometry x="290" y="560" width="220" height="70" as="geometry" />
        </mxCell>
        <mxCell id="eAH29HLJDyGKY2sN0OEk-37" value="" style="edgeStyle=orthogonalEdgeStyle;rounded=0;html=1;jettySize=auto;orthogonalLoop=1;fontSize=11;endArrow=block;endFill=0;endSize=8;strokeWidth=1;shadow=0;labelBackgroundColor=none;exitX=0.5;exitY=1;exitDx=0;exitDy=0;entryX=1;entryY=0.5;entryDx=0;entryDy=0;" edge="1" parent="WIyWlLk6GJQsqaUBKTNV-1" source="eAH29HLJDyGKY2sN0OEk-33" target="eAH29HLJDyGKY2sN0OEk-35">
          <mxGeometry x="-0.2161" y="20" relative="1" as="geometry">
            <mxPoint as="offset" />
            <mxPoint x="380" y="640" as="sourcePoint" />
            <mxPoint x="380" y="680" as="targetPoint" />
            <Array as="points">
              <mxPoint x="610" y="595" />
            </Array>
          </mxGeometry>
        </mxCell>
        <mxCell id="eAH29HLJDyGKY2sN0OEk-40" value="&lt;span style=&quot;font-size: 14px; line-height: 115%;&quot;&gt;Робимо запит на книжку&lt;/span&gt;" style="rounded=0;whiteSpace=wrap;html=1;fillColor=#f5f5f5;gradientColor=#b3b3b3;strokeColor=#666666;strokeWidth=2;fontSize=14;fontFamily=Helvetica;" vertex="1" parent="WIyWlLk6GJQsqaUBKTNV-1">
          <mxGeometry x="280" y="200" width="240" height="40" as="geometry" />
        </mxCell>
        <mxCell id="eAH29HLJDyGKY2sN0OEk-41" value="&lt;span style=&quot;font-size: 14px; line-height: 115%;&quot;&gt;Пошук книжки бібліотекарем&lt;/span&gt;" style="rounded=0;whiteSpace=wrap;html=1;fillColor=#f5f5f5;gradientColor=#b3b3b3;strokeColor=#666666;strokeWidth=2;fontSize=14;fontFamily=Helvetica;" vertex="1" parent="WIyWlLk6GJQsqaUBKTNV-1">
          <mxGeometry x="280" y="280" width="240" height="40" as="geometry" />
        </mxCell>
      </root>
    </mxGraphModel>
  </diagram>
</mxfile>
